HIERARCHY
ROOT root
{
	OFFSET	0	13.1	24.9
	CHANNELS 6  Xposition Yposition Zposition Xrotation Yrotation Zrotation
	JOINT spine_1
	{
		OFFSET	0	9.99999	0
		CHANNELS 3  Xrotation Yrotation Zrotation
		JOINT spine_2
		{
			OFFSET	0	112	-10
			CHANNELS 3  Xrotation Yrotation Zrotation
			JOINT spine_3
			{
				OFFSET	0	206.5	19.3
				CHANNELS 3  Xrotation Yrotation Zrotation
				JOINT spine_4
				{
					OFFSET	0	110.4	14.6
					CHANNELS 3  Xrotation Yrotation Zrotation
					JOINT neck_1
					{
						OFFSET	0	71.8	-50.3
						CHANNELS 3  Xrotation Yrotation Zrotation
						JOINT neck_2
						{
							OFFSET	0	86.2	-25.8
							CHANNELS 3  Xrotation Yrotation Zrotation
							JOINT head_ee
							{
								OFFSET	0	179.8	-8.7
								CHANNELS 3  Xrotation Yrotation Zrotation
								End Site
								{
									OFFSET	1	0	0
								}
							}
						}
					}
					JOINT left_clavicle
					{
						OFFSET	-43.2	22.4	-70.8
						CHANNELS 3  Xrotation Yrotation Zrotation
						JOINT left_shoulder
						{
							OFFSET	-93.9	-5.79999	48.7
							CHANNELS 3  Xrotation Yrotation Zrotation
							JOINT left_elbow
							{
								OFFSET	-291.4	-30.8	15.2
								CHANNELS 3  Xrotation Yrotation Zrotation
								JOINT left_lowarm_twist
								{
									OFFSET	-110.7	-3.89999	13.6
									CHANNELS 3  Xrotation Yrotation Zrotation
									JOINT left_hand
									{
										OFFSET	-110.7	-3.89999	13.6
										CHANNELS 3  Xrotation Yrotation Zrotation
										JOINT left_ee
										{
											OFFSET	-80.8	-5.10001	12.1
											CHANNELS 3  Xrotation Yrotation Zrotation
											End Site
											{
												OFFSET	1	0	0
											}
										}
									}
								}
							}
						}
					}
					JOINT right_clavicle
					{
						OFFSET	43.2	22.4	-70.8
						CHANNELS 3  Xrotation Yrotation Zrotation
						JOINT right_shoulder
						{
							OFFSET	93.9	-5.79999	48.7
							CHANNELS 3  Xrotation Yrotation Zrotation
							JOINT right_elbow
							{
								OFFSET	291.4	-30.8	15.2
								CHANNELS 3  Xrotation Yrotation Zrotation
								JOINT right_lowarm_twist
								{
									OFFSET	110.7	-3.89999	13.6
									CHANNELS 3  Xrotation Yrotation Zrotation
									JOINT right_hand
									{
										OFFSET	110.7	-3.89999	13.6
										CHANNELS 3  Xrotation Yrotation Zrotation
										JOINT right_ee
										{
											OFFSET	80.8	-5.10001	12.1
											CHANNELS 3  Xrotation Yrotation Zrotation
											End Site
											{
												OFFSET	1	0	0
											}
										}
									}
								}
							}
						}
					}
				}
			}
		}
	}
	JOINT left_hip
	{
		OFFSET	-82.8	-127.5	0.300001
		CHANNELS 3  Xrotation Yrotation Zrotation
		JOINT left_knee
		{
			OFFSET	-28.2	-396.7	2.2
			CHANNELS 3  Xrotation Yrotation Zrotation
			JOINT left_ankle
			{
				OFFSET	-11.7	-411.3	35.4
				CHANNELS 3  Xrotation Yrotation Zrotation
				JOINT left_toes
				{
					OFFSET	0	-60	-88.6
					CHANNELS 3  Xrotation Yrotation Zrotation
					JOINT left_foot_ee
					{
						OFFSET	-22.5	-16.5	-42.2
						CHANNELS 3  Xrotation Yrotation Zrotation
						End Site
						{
							OFFSET	1	0	0
						}
					}
				}
			}
		}
	}
	JOINT right_hip
	{
		OFFSET	82.8	-127.5	0.300001
		CHANNELS 3  Xrotation Yrotation Zrotation
		JOINT right_knee
		{
			OFFSET	28.2	-396.7	2.2
			CHANNELS 3  Xrotation Yrotation Zrotation
			JOINT right_ankle
			{
				OFFSET	11.7	-411.3	35.4
				CHANNELS 3  Xrotation Yrotation Zrotation
				JOINT right_toes
				{
					OFFSET	0	-60	-88.6
					CHANNELS 3  Xrotation Yrotation Zrotation
					JOINT right_foot_ee
					{
						OFFSET	22.5	-16.5	-42.2
						CHANNELS 3  Xrotation Yrotation Zrotation
						End Site
						{
							OFFSET	1	0	0
						}
					}
				}
			}
		}
	}
}
MOTION
Frames: 15
Frame Time: 0.02
2904.17660217 697.103 -1892.22987801 -11.3813889068 23.7961394972 2.75527670075 4.67182 0.13339 1.21045 4.67263 0.0561009 1.21649 4.6732 -0.102315 1.21347 4.67116 0.0905998 1.21441 -8.9642 8.1849 3.75321 -8.96404 12.7535 5.59121 -0.0 0.0 -0.0 3.13663 18.4559 6.90714 -13.6082 -30.5687 50.94 1.44466 -35.5869 0.463669 1.7318 0.0577912 -0.213631 -1.74071 12.5045 -5.83875 -0.0 0.0 -0.0 6.04014 17.3701 -10.8987 -23.102 14.32 -70.1691 0.61494 16.9421 -0.0915865 25.595 -0.181368 3.23745 0.00939083 -7.88346 -3.34099 0.0 0.0 0.0 22.0981 14.4062 1.94012 -16.6741 0.32041 2.52973 19.3135 13.7691 -2.66276 -17.0501 0.0 0.0 -0.0 0.0 -0.0 35.2376 11.5211 4.58889 -54.7461 1.66015 -7.92174 21.4832 -4.63353 2.91532 -0.218426 0.0 0.0 0.0 0.0 0.0 
2882.52852249 700.301 -1896.24367162 -10.6682662171 25.6801815507 1.91057123596 4.80736 0.00810091 1.28581 4.80828 -0.0737284 1.28372 4.8059 -0.236882 1.26384 4.80367 -0.0343271 1.28538 -10.4497 8.18095 4.57249 -10.4507 12.3783 6.53349 -0.0 0.0 -0.0 3.63781 17.5895 7.65785 -13.1552 -30.1032 49.6394 1.38553 -34.4619 0.429733 -0.422015 -0.0150606 0.0517907 -2.0682 12.534 -7.90507 -0.0 0.0 -0.0 5.92515 16.1499 -10.741 -25.4123 14.4305 -69.6442 0.616391 16.9797 -0.0920097 26.5416 -0.160233 3.35652 0.0793231 -9.26945 -4.35739 0.0 0.0 0.0 19.5925 15.3591 3.63173 -17.1614 0.318631 2.60448 20.1116 14.0455 -2.76468 -17.3278 0.0 0.0 -0.0 0.0 -0.0 41.6889 7.59276 3.7722 -57.7288 1.9598 -8.27049 23.2139 -5.69194 3.12165 -0.212829 0.0 0.0 0.0 0.0 0.0 
2878.24759001 700.301 -1890.57770055 -10.768498958 26.755463983 2.13744230839 4.80736 0.00810091 1.28581 4.80828 -0.0737284 1.28372 4.8059 -0.236882 1.26384 4.80367 -0.0343271 1.28538 -10.4497 8.18095 4.57249 -10.4507 12.3783 6.53349 -0.0 0.0 -0.0 3.63781 17.5895 7.65785 -13.1552 -30.1032 49.6394 1.38553 -34.4619 0.429733 -0.422015 -0.0150606 0.0517907 -2.0682 12.534 -7.90507 -0.0 0.0 -0.0 5.92515 16.1499 -10.741 -25.4123 14.4305 -69.6442 0.616391 16.9797 -0.0920097 26.5416 -0.160233 3.35652 0.0793231 -9.26945 -4.35739 0.0 0.0 0.0 19.5925 15.3591 3.63173 -17.1614 0.318631 2.60448 20.1116 14.0455 -2.76468 -17.3278 0.0 0.0 -0.0 0.0 -0.0 41.6889 7.59276 3.7722 -57.7288 1.9598 -8.27049 23.2139 -5.69194 3.12165 -0.212829 0.0 0.0 0.0 0.0 0.0 
2860.62131843 695.677 -1886.69917368 -11.0387840577 27.4999426259 2.1012362092 4.95341 0.135979 1.30759 4.95436 0.0525056 1.31359 4.95476 -0.112056 1.30986 4.95238 0.0962003 1.31112 -12.7541 8.58959 5.13519 -12.7857 13.0959 7.43167 -0.0 0.0 -0.0 3.55989 17.1092 7.52788 -11.9977 -29.6836 48.6993 1.52108 -36.9954 0.508903 -2.07299 -0.0776374 0.253313 -2.30337 10.9414 -10.205 -0.0 0.0 -0.0 5.84666 15.5704 -10.6138 -27.0715 14.8104 -69.0645 0.637813 17.5342 -0.0983647 27.1358 -0.145961 3.43108 0.0359899 -10.6184 -4.62322 0.0 0.0 0.0 18.4147 16.8578 4.68895 -16.9419 0.319511 2.57081 23.7181 14.5054 -3.20977 -17.7197 0.0 0.0 -0.0 0.0 -0.0 44.8106 5.66001 3.71144 -60.603 2.26544 -8.59154 25.209 -6.79229 3.3549 -0.0515645 0.0 0.0 0.0 0.0 0.0 
2823.28175453 694.537 -1903.19888503 -12.1895759799 28.5939017203 2.9371639381 5.44576 -0.0670215 1.15469 5.44649 -0.140356 1.14808 5.44299 -0.273187 1.12391 5.44124 -0.092271 1.15294 -13.7339 8.50213 4.35839 -13.8126 13.5366 6.78673 -0.0 0.0 -0.0 3.89091 16.2398 8.03503 -11.418 -29.1788 46.7915 1.66669 -39.5409 0.599111 -4.84506 -0.195701 0.587416 -2.64911 9.61849 -13.1396 -0.0 0.0 -0.0 5.48682 13.3013 -10.0012 -29.7864 14.1934 -68.2991 0.645156 17.7235 -0.100589 28.3135 -0.115394 3.57841 0.0722884 -10.2195 -4.69535 0.0 0.0 0.0 15.1581 14.9221 7.14799 -13.8303 0.318109 2.09347 24.4941 16.2671 -3.31776 -17.4531 0.0 0.0 -0.0 0.0 -0.0 48.4892 7.38799 2.47899 -58.6093 2.05171 -8.37045 20.6884 -16.9559 2.85804 -1.54833 0.0 0.0 0.0 0.0 0.0 
2797.78252379 692.546 -1911.41665496 -11.4807237763 30.3611794454 3.0079964296 5.3724 -0.00428022 0.909493 5.37286 -0.0621425 0.907378 5.37145 -0.168554 0.893749 5.37033 -0.0252938 0.909151 -14.4974 8.44695 2.83493 -14.6442 14.4348 5.43354 -0.0 0.0 -0.0 3.98734 16.7291 8.19313 -7.9546 -28.7432 49.2593 1.73421 -40.6615 0.642603 -8.2081 -0.360459 0.984597 -2.83088 8.5047 -14.9283 -0.0 0.0 -0.0 4.8771 12.2698 -8.78057 -30.9124 11.6618 -68.6533 0.589208 16.2714 -0.0842321 28.9997 -0.0961861 3.66396 -0.263412 -10.2581 -2.55962 0.0 0.0 0.0 12.483 11.4698 8.82145 -12.5493 0.31 1.89709 25.9905 20.6773 -3.55144 -17.5415 0.0 0.0 -0.0 0.0 -0.0 48.6224 13.451 -0.00653727 -44.4466 0.773611 -6.60923 10.2606 -27.3618 1.54557 -5.18095 0.0 0.0 0.0 0.0 0.0 
2775.92573617 691.104 -1923.07393734 -12.4852766033 30.841150983 4.08526323799 5.44764 -0.00947138 0.579253 5.44783 -0.0463109 0.577477 5.44719 -0.11323 0.568158 5.44674 -0.0220806 0.57891 -14.4093 8.07086 1.15953 -14.5809 14.7163 3.72101 -0.0 0.0 -0.0 4.3035 16.7696 8.69213 -6.26554 -29.1443 51.1491 1.79022 -41.5634 0.679434 -11.4058 -0.538531 1.3528 -3.28515 9.62221 -17.3855 -0.0 0.0 -0.0 4.84148 11.0959 -8.78496 -31.8319 10.242 -68.0121 0.501758 13.9586 -0.0614244 29.8089 -0.0722237 3.76454 -0.443721 -9.80485 -1.21539 0.0 0.0 0.0 11.3733 8.53597 9.92687 -11.1556 0.296193 1.68369 30.5766 25.6119 -4.18911 -16.7368 0.0 0.0 -0.0 0.0 -0.0 46.6568 16.8507 -0.542146 -38.4254 0.369644 -5.77659 5.92769 -28.9174 0.913117 -5.4685 0.0 0.0 0.0 0.0 0.0 
2744.44580139 688.026 -1945.46882605 -12.6950244486 32.3601929788 5.56680967438 5.55207 0.00630534 0.074301 5.55208 0.0015646 0.0745517 5.55208 -0.0069894 0.0742398 5.55207 0.0048231 0.0744119 -14.3083 7.96031 -0.973744 -14.5064 15.7858 1.65883 -0.0 0.0 -0.0 4.86981 16.5616 9.59103 -3.37473 -28.829 53.9545 1.83528 -42.2713 0.70954 -15.1089 -0.770113 1.76617 -3.68241 9.23079 -20.3188 -0.0 0.0 -0.0 4.38056 10.2906 -7.87564 -32.7209 7.86668 -67.962 0.420754 11.7738 -0.0433834 31.845 -0.00565305 4.01607 -0.771008 -9.49053 1.01867 0.0 0.0 0.0 8.90525 4.64714 10.086 -9.44313 0.272127 1.42204 34.4562 29.0883 -4.73352 -16.2958 0.0 0.0 -0.0 0.0 -0.0 44.993 22.7391 -1.32185 -25.9948 -0.176522 -3.95115 -1.65016 -30.2186 -0.260968 -6.79809 0.0 0.0 0.0 0.0 0.0 
2728.56677422 686.949 -1956.10354568 -13.0716199635 33.0346605541 6.16099822232 5.71763 -0.0880327 -0.0339382 5.71763 -0.0856948 -0.0394712 5.71769 -0.0807481 -0.0487986 5.7177 -0.0874416 -0.0354335 -13.4612 7.70475 -3.09981 -13.6285 16.5902 -0.565615 -0.0 0.0 -0.0 5.18902 15.4573 10.1216 -3.93041 -28.7977 54.4161 1.84112 -42.3618 0.713467 -15.8788 -0.821594 1.8502 -3.74842 10.1901 -20.2189 -0.0 0.0 -0.0 4.32629 9.89291 -7.78997 -33.5948 7.94132 -67.2955 0.434675 12.1519 -0.046269 33.2661 0.0460915 4.19017 -0.402768 -9.70485 -1.436 0.0 0.0 0.0 8.03052 5.63316 9.76403 -10.292 0.285034 1.55165 38.2705 26.2165 -5.03799 -16.3575 0.0 0.0 -0.0 0.0 -0.0 45.8068 24.4152 -2.07274 -18.9533 -0.306625 -2.87913 -6.0364 -28.8498 -0.953321 -7.61535 0.0 0.0 0.0 0.0 0.0 
2719.46136693 683.892 -1971.30559164 -14.1005351809 32.319439912 7.36329794231 5.70983 -0.11147 -0.424407 5.70992 -0.0842383 -0.43064 5.71045 -0.0355421 -0.43736 5.7102 -0.104168 -0.426258 -14.1041 7.91472 -3.31638 -14.3028 17.1146 -0.60435 -0.0 0.0 -0.0 5.37646 14.9554 10.4373 -2.85646 -27.9118 55.0325 1.83912 -42.3308 0.712123 -16.297 -0.850038 1.89556 -3.78753 10.7162 -20.1797 -0.0 0.0 -0.0 4.38205 9.53275 -7.93025 -34.1892 7.95591 -66.5462 0.480203 13.3809 -0.0563302 34.0553 0.0766898 4.2863 -0.281343 -10.139 -2.39548 0.0 0.0 0.0 7.58547 5.40158 8.9736 -9.52428 0.273444 1.43442 38.667 24.516 -5.02298 -16.6225 0.0 0.0 -0.0 0.0 -0.0 45.9791 24.1966 -2.19231 -13.5844 -0.316892 -2.05574 -8.88783 -26.594 -1.39048 -8.09154 0.0 0.0 0.0 0.0 0.0 
2682.18018842 671.202 -1989.86699633 -13.7510878502 34.813203331 7.96903342144 5.63144 -0.112517 -0.6355 5.63166 -0.071851 -0.641371 5.63224 0.00121968 -0.645382 5.63167 -0.10072 -0.637475 -15.4525 7.64456 -1.40728 -15.6711 15.4574 1.30396 -0.0 0.0 -0.0 5.01346 15.1196 9.84103 -3.76318 -28.5571 55.5075 2.09756 -46.092 0.89243 -16.7837 -0.883555 1.94809 -4.03905 14.4462 -19.6381 -0.0 0.0 -0.0 4.50056 7.16697 -8.32493 -34.5462 8.77526 -65.1707 0.513257 14.2655 -0.064228 36.4244 0.176468 4.57223 0.0626698 -13.1223 -5.79279 0.0 0.0 0.0 5.96486 1.75358 9.05092 -12.0622 0.305765 1.82247 41.1526 23.9701 -5.24378 -15.3784 0.0 0.0 -0.0 0.0 -0.0 45.3915 25.4243 -2.8117 -3.33168 -0.122767 -0.496498 -12.8943 -21.6391 -1.97911 -9.53505 0.0 0.0 0.0 0.0 0.0 
2671.46587512 668.844 -2001.64569115 -14.2462564807 35.5638668208 8.44085320903 5.59343 -0.0708823 -0.573827 5.59362 -0.0342251 -0.577174 5.59377 0.0317254 -0.577317 5.59331 -0.0598477 -0.575082 -15.8967 7.50954 -0.952171 -16.1145 14.9397 1.74379 -0.0 0.0 -0.0 4.66759 14.4675 9.27978 -4.53483 -28.7837 55.6267 2.17534 -47.133 0.94896 -16.7942 -0.884279 1.94921 -4.03844 15.5665 -18.9425 -0.0 0.0 -0.0 5.04649 7.35327 -9.43543 -34.1374 9.39661 -65.109 0.511908 14.2296 -0.063896 37.4703 0.224264 4.69711 0.102279 -15.1223 -6.82615 0.0 0.0 0.0 5.60303 -0.805257 8.88849 -12.7146 0.311292 1.92241 42.0395 23.4429 -5.30857 -14.7554 0.0 0.0 -0.0 0.0 -0.0 45.072 25.242 -3.28159 0.166441 0.00688917 0.0246127 -13.4573 -22.4433 -2.07356 -9.71988 0.0 0.0 0.0 0.0 0.0 
2616.50027008 661.683 -2034.89554942 -17.3243484914 38.5827260388 11.1747815153 5.46786 -0.12875 -0.538126 5.46801 -0.0942472 -0.545228 5.46875 -0.0303416 -0.552481 5.46835 -0.117214 -0.540756 -14.8742 7.53917 0.699694 -15.0416 13.999 3.16941 -0.0 0.0 -0.0 4.32118 12.3916 8.69199 -8.16074 -29.5004 54.7918 2.09036 -45.9936 0.887248 -15.2469 -0.779255 1.78128 -3.57913 18.8966 -13.9896 -0.0 0.0 -0.0 6.65477 7.69021 -12.7505 -34.5535 10.3648 -64.3365 0.472391 13.1709 -0.0545363 39.2243 0.309533 4.90456 0.111066 -20.6718 -8.99045 0.0 0.0 0.0 6.32548 -6.89332 8.42229 -15.0277 0.321717 2.27713 42.4661 22.824 -5.32789 -14.0497 0.0 0.0 -0.0 0.0 -0.0 44.4717 25.8601 -4.52859 3.80761 0.17542 0.557776 -15.677 -19.2433 -2.39136 -9.94076 0.0 0.0 0.0 0.0 0.0 
2621.99579642 661.683 -2043.18559885 -17.1260764319 37.7693578872 10.8540029285 5.46786 -0.12875 -0.538126 5.46801 -0.0942472 -0.545228 5.46875 -0.0303416 -0.552481 5.46835 -0.117214 -0.540756 -14.8742 7.53917 0.699694 -15.0416 13.999 3.16941 -0.0 0.0 -0.0 4.32118 12.3916 8.69199 -8.16074 -29.5004 54.7918 2.09036 -45.9936 0.887248 -15.2469 -0.779255 1.78128 -3.57913 18.8966 -13.9896 -0.0 0.0 -0.0 6.65477 7.69021 -12.7505 -34.5535 10.3648 -64.3365 0.472391 13.1709 -0.0545363 39.2243 0.309533 4.90456 0.111066 -20.6718 -8.99045 0.0 0.0 0.0 6.32548 -6.89332 8.42229 -15.0277 0.321717 2.27713 42.4661 22.824 -5.32789 -14.0497 0.0 0.0 -0.0 0.0 -0.0 44.4717 25.8601 -4.52859 3.80761 0.17542 0.557776 -15.677 -19.2433 -2.39136 -9.94076 0.0 0.0 0.0 0.0 0.0 
2624.68005463 661.683 -2047.13966606 -17.0336162923 37.3782329651 10.702375864 5.46786 -0.12875 -0.538126 5.46801 -0.0942472 -0.545228 5.46875 -0.0303416 -0.552481 5.46835 -0.117214 -0.540756 -14.8742 7.53917 0.699694 -15.0416 13.999 3.16941 -0.0 0.0 -0.0 4.32118 12.3916 8.69199 -8.16074 -29.5004 54.7918 2.09036 -45.9936 0.887248 -15.2469 -0.779255 1.78128 -3.57913 18.8966 -13.9896 -0.0 0.0 -0.0 6.65477 7.69021 -12.7505 -34.5535 10.3648 -64.3365 0.472391 13.1709 -0.0545363 39.2243 0.309533 4.90456 0.111066 -20.6718 -8.99045 0.0 0.0 0.0 6.32548 -6.89332 8.42229 -15.0277 0.321717 2.27713 42.4661 22.824 -5.32789 -14.0497 0.0 0.0 -0.0 0.0 -0.0 44.4717 25.8601 -4.52859 3.80761 0.17542 0.557776 -15.677 -19.2433 -2.39136 -9.94076 0.0 0.0 0.0 0.0 0.0 
